<svg xmlns="http://www.w3.org/2000/svg" version="1.1" xmlns:xlink="http://www.w3.org/1999/xlink" xmlns:svgjs="http://svgjs.com/svgjs" width="2000" height="2000" preserveAspectRatio="none" viewBox="0 0 2000 2000"><g mask="url(&quot;#SvgjsMask1137&quot;)" fill="none"><rect width="2000" height="2000" x="0" y="0" fill="url(#SvgjsLinearGradient1138)"></rect><path d="M875.56 2175.56C1164.29 1903.87 1094.62 750.37 1458.79 700.86 1822.95 651.35 1841.69 1234.44 2042.01 1280.86" stroke="rgba(51,121,194,0.58)" stroke-width="2"></path><path d="M1205.68 2328.05C1481.92 2078.93 1283 1228.76 1769.81 951.21 2256.62 673.66 2140.31 435.92 2333.94 391.21" stroke="rgba(51,121,194,0.58)" stroke-width="2"></path><path d="M742.3 2166.38C944.7 2103.36 1000.93 1528.02 1293.62 1522.15 1586.31 1516.28 1569.28 1772.15 1844.94 1772.15 2120.6 1772.15 2245.03 1527.9 2396.26 1522.15" stroke="rgba(51,121,194,0.58)" stroke-width="2"></path><path d="M754.01 2155.38C1080.97 1985.63 972.43 1063.7 1532.06 903.94 2091.69 744.18 2082.33 442.73 2310.11 423.94" stroke="rgba(51,121,194,0.58)" stroke-width="2"></path><path d="M527.31 2319.36C734.22 2237 522.76 1714.4 1056.89 1603.06 1591.02 1491.72 1789.72 863.62 2116.05 823.06" stroke="rgba(51,121,194,0.58)" stroke-width="2"></path></g><defs><mask id="SvgjsMask1137"><rect width="2000" height="2000" fill="#ffffff"></rect></mask><linearGradient x1="0%" y1="0%" x2="100%" y2="100%" gradientUnits="userSpaceOnUse" id="SvgjsLinearGradient1138"><stop stop-color="#0e2a47" offset="0"></stop><stop stop-color="rgba(94, 94, 94, 1)" offset="1"></stop></linearGradient></defs></svg>